<svg width="20" height="20" viewBox="0 0 20 20" fill="none" xmlns="http://www.w3.org/2000/svg">
<path d="M7.02778 14.75C6.82407 14.5093 6.72222 14.2359 6.72222 13.93C6.72222 13.6248 6.82407 13.3704 7.02778 13.1667L9.08333 11.1111H1.11111C0.796296 11.1111 0.532593 11.0044 0.32 10.7911C0.106667 10.5785 0 10.3148 0 10C0 9.68519 0.106667 9.42111 0.32 9.20778C0.532593 8.99519 0.796296 8.88889 1.11111 8.88889H9.08333L7.02778 6.83333C6.80556 6.61111 6.69444 6.34741 6.69444 6.04222C6.69444 5.7363 6.80556 5.47222 7.02778 5.25C7.23148 5.02778 7.4863 4.91667 7.79222 4.91667C8.09741 4.91667 8.35185 5.01852 8.55556 5.22222L12.5556 9.22222C12.6667 9.33333 12.7456 9.4537 12.7922 9.58333C12.8381 9.71296 12.8611 9.85185 12.8611 10C12.8611 10.1481 12.8381 10.287 12.7922 10.4167C12.7456 10.5463 12.6667 10.6667 12.5556 10.7778L8.55556 14.7778C8.33333 15 8.07407 15.1019 7.77778 15.0833C7.48148 15.0648 7.23148 14.9537 7.02778 14.75ZM11.1111 20C10.7963 20 10.5326 19.8933 10.32 19.68C10.1067 19.4674 10 19.2037 10 18.8889C10 18.5741 10.1067 18.3104 10.32 18.0978C10.5326 17.8844 10.7963 17.7778 11.1111 17.7778H17.7778V2.22222H11.1111C10.7963 2.22222 10.5326 2.11556 10.32 1.90222C10.1067 1.68963 10 1.42593 10 1.11111C10 0.796296 10.1067 0.532222 10.32 0.318889C10.5326 0.106296 10.7963 0 11.1111 0H17.7778C18.3889 0 18.9122 0.217407 19.3478 0.652222C19.7826 1.08778 20 1.61111 20 2.22222V17.7778C20 18.3889 19.7826 18.9122 19.3478 19.3478C18.9122 19.7826 18.3889 20 17.7778 20H11.1111Z" fill="white"/>
</svg>
